# xmcd
#
# Track frame offsets: 
#        150
#        13934
#        25506
#        38242
#        51776
#        60476
#        71226
#        83132
#        95159
#        105072
#        115974
#        124093
#        133036
#        145884
#        153375
#        165422
#        182237
#        205017
#        215382
#        226107
#        239557
#        251075
#
# Disc length: 3533 seconds
#
# Revision: 0
# Processed by: cddbd v1.5.2PL0 Copyright (c) Steve Scherf et al.
# Submitted via: ExactAudioCopyFreeDBPlugin 1.0
#
DISCID=2e0dcb16
DTITLE=Bo Diddley - The Indispensable Vol. 2 (1959-1962) [CD 2]
DYEAR=2013
DGENRE=R&B
TTITLE0=Bo Diddley Is Loose
TTITLE1=Bo Diddley Is a Lover
TTITLE2=Bo's Vacation
TTITLE3=Hong Kong, Mississippi
TTITLE4=Quick Draw
TTITLE5=You're Looking Good
TTITLE6=Call Me
TTITLE7=Congo
TTITLE8=Not Guilty
TTITLE9=Moon Baby
TTITLE10=My Babe
TTITLE11=Detour
TTITLE12=Pills
TTITLE13=Bo's Bounce
TTITLE14=Two Flies
TTITLE15=Background to a Music
TTITLE16=Please Mr. Engineer
TTITLE17=Doin' the Jaguar
TTITLE18=(I Know) I'm Alright
TTITLE19=Mr. Khruschev
TTITLE20=Bo's Twist
TTITLE21=You All Green
EXTD=
EXTT0=
EXTT1=
EXTT2=
EXTT3=
EXTT4=
EXTT5=
EXTT6=
EXTT7=
EXTT8=
EXTT9=
EXTT10=
EXTT11=
EXTT12=
EXTT13=
EXTT14=
EXTT15=
EXTT16=
EXTT17=
EXTT18=
EXTT19=
EXTT20=
EXTT21=
PLAYORDER=
